<svg width="22" height="28" viewBox="0 0 22 28" fill="none" xmlns="http://www.w3.org/2000/svg">
<path d="M12.2014 10H19.5764L12.2014 2.6875V10ZM16.2014 16.6875V14H5.57642V16.6875H16.2014ZM16.2014 22V19.3125H5.57642V22H16.2014ZM13.5764 0.6875L21.5764 8.6875V24.6875C21.5764 25.3958 21.3056 26.0208 20.7639 26.5625C20.2222 27.0625 19.5972 27.3125 18.8889 27.3125H2.88892C2.18058 27.3125 1.55558 27.0625 1.01392 26.5625C0.472249 26.0208 0.201416 25.3958 0.201416 24.6875L0.263916 3.3125C0.263916 2.60417 0.513916 2 1.01392 1.5C1.55558 0.958333 2.18058 0.6875 2.88892 0.6875H13.5764Z" fill="#CF6F49"/>
</svg>
