<svg width="30" height="22" viewBox="0 0 30 22" fill="none" xmlns="http://www.w3.org/2000/svg">
<path d="M24.2014 13.6875V3C24.2014 2.25 23.9306 1.625 23.3889 1.125C22.8889 0.583333 22.2847 0.3125 21.5764 0.3125H2.88892C2.13892 0.3125 1.49308 0.583333 0.951416 1.125C0.451416 1.625 0.201416 2.25 0.201416 3V13.6875C0.201416 14.3958 0.451416 15.0208 0.951416 15.5625C1.49308 16.0625 2.13892 16.3125 2.88892 16.3125H21.5764C22.2847 16.3125 22.8889 16.0625 23.3889 15.5625C23.9306 15.0208 24.2014 14.3958 24.2014 13.6875ZM12.2014 12.3125C11.4931 12.3125 10.8264 12.1458 10.2014 11.8125C9.61808 11.4375 9.13892 10.9583 8.76392 10.375C8.38892 9.75 8.20142 9.0625 8.20142 8.3125C8.20142 7.60417 8.38892 6.95833 8.76392 6.375C9.13892 5.75 9.61808 5.25 10.2014 4.875C10.8264 4.5 11.4931 4.3125 12.2014 4.3125C12.9514 4.3125 13.6181 4.5 14.2014 4.875C14.8264 5.25 15.3056 5.75 15.6389 6.375C16.0139 6.95833 16.2014 7.60417 16.2014 8.3125C16.2014 9.0625 16.0139 9.75 15.6389 10.375C15.3056 10.9583 14.8264 11.4375 14.2014 11.8125C13.6181 12.1458 12.9514 12.3125 12.2014 12.3125ZM29.5764 4.3125V19C29.5764 19.75 29.3056 20.3958 28.7639 20.9375C28.2639 21.4375 27.6389 21.6875 26.8889 21.6875H4.20142V19H26.8889V4.3125H29.5764Z" fill="#CF6F49"/>
</svg>
